Coordinates
version=1
nRows=19
nColumns=24
inDegrees=yes

Units are S.I. units (second, meters, Newtons, ...)
Angles are in degrees.

endheader
time	pelvis_tilt	pelvis_list	pelvis_rotation	pelvis_tx	pelvis_ty	pelvis_tz	hip_flexion_r	hip_adduction_r	hip_rotation_r	knee_angle_r	ankle_angle_r	subtalar_angle_r	mtp_angle_r	hip_flexion_l	hip_adduction_l	hip_rotation_l	knee_angle_l	ankle_angle_l	subtalar_angle_l	mtp_angle_l	lumbar_extension	lumbar_bending	lumbar_rotation
      2.76500000	     -9.83943218	     13.54763573	     -4.27142502	     -1.71572852	     -0.05156619	      0.64313609	     19.65240639	    -17.18424532	      1.46359863	    -66.01245342	    -29.70983323	     -6.79875857	     48.93964612	     33.59741681	     14.73290373	     -0.00410432	    -34.13310941	     11.18831314	     -8.93743233	    -23.16777615	      8.59328366	    -15.27170156	      2.08532101
      2.77000000	     -9.66042182	     13.64894018	     -4.19858249	     -1.70828032	     -0.05001922	      0.64283523	     20.54032400	    -17.35728514	      1.43235861	    -67.19383365	    -28.93596696	     -7.43036617	     48.30589610	     32.63819029	     15.03592765	      0.27923312	    -33.64242237	     11.42514733	     -9.04495723	    -23.12046428	      8.52730863	    -15.42005023	      1.86096978
      2.77500000	     -9.46563488	     13.68627394	     -4.12627445	     -1.70085717	     -0.04837465	      0.64257818	     21.38200778	    -17.44536375	      1.40467976	    -68.29116146	    -28.05885762	     -7.80758221	     47.31856989	     31.63516012	     15.26084853	      0.57653936	    -33.13665439	     11.70550595	     -9.01659922	    -22.99950086	      8.43460778	    -15.50271343	      1.62178515
      2.78000000	     -9.30287518	     13.67822808	     -4.05617660	     -1.69343001	     -0.04668775	      0.64233656	     22.23189615	    -17.46351876	      1.39881404	    -69.27374441	    -27.25184034	     -8.10068860	     46.57160642	     30.63664640	     15.42419556	      0.89358085	    -32.59760123	     11.96756658	     -8.94088355	    -22.79013148	      8.38206039	    -15.53086670	      1.40469736
      2.78500000	     -9.12214389	     13.67039680	     -3.98831373	     -1.68606455	     -0.04492709	      0.64205154	     23.04692257	    -17.48014586	      1.39758673	    -70.14280513	    -26.54193707	     -8.43843602	     46.12261734	     29.59985674	     15.59179060	      1.21464350	    -32.00188777	     12.13161456	     -8.99393454	    -22.64231747	      8.29920455	    -15.55183604	      1.17984087
      2.79000000	     -8.97973823	     13.64491461	     -3.90507281	     -1.67872654	     -0.04319313	      0.64178488	     23.88371766	    -17.46055593	      1.40902651	    -70.91779137	    -25.92992898	     -8.73173581	     45.86715242	     28.59291018	     15.72021087	      1.53105147	    -31.39680556	     12.35085454	     -8.92965919	    -22.53194044	      8.25171056	    -15.55715465	      0.94928897
      2.79500000	     -8.79034630	     13.59861092	     -3.83686446	     -1.67139436	     -0.04135159	      0.64149742	     24.64438267	    -17.40821771	      1.42124442	    -71.59720038	    -25.35821496	     -9.00260225	     45.37429580	     27.49835542	     15.84249051	      1.90641402	    -30.71321403	     12.46741088	     -9.07935560	    -22.51416258	      8.15126317	    -15.53143722	      0.75451669
      2.80000000	     -8.62858814	     13.52072943	     -3.76128081	     -1.66410206	     -0.03954270	      0.64122633	     25.40915737	    -17.30185455	      1.43339507	    -72.19061293	    -24.83719054	     -9.26967295	     44.87672621	     26.43177076	     15.91250167	      2.25691596	    -30.02999864	     12.61836477	     -9.17422458	    -22.56417094	      8.07022060	    -15.47184564	      0.54932414
      2.80500000	     -8.49437102	     13.43163096	     -3.67886453	     -1.65683723	     -0.03777107	      0.64093100	     26.18247442	    -17.17110410	      1.44668290	    -72.69432195	    -24.40233594	     -9.58379373	     44.46896537	     25.38699776	     15.96471587	      2.61295686	    -29.32885300	     12.75524589	     -9.28924083	    -22.67472009	      8.01240182	    -15.39229113	      0.34590300
      2.81000000	     -8.36025230	     13.33379006	     -3.58525000	     -1.64959071	     -0.03601942	      0.64061564	     26.92835430	    -17.02718994	      1.44438501	    -73.11289522	    -24.02200954	     -9.94826911	     44.04313146	     24.33351066	     16.00764835	      2.99089995	    -28.61466469	     12.88167741	     -9.39480468	    -22.81317158	      7.94448001	    -15.30420148	      0.12738809
      2.81500000	     -8.23858755	     13.22243303	     -3.48276383	     -1.64237192	     -0.03430941	      0.64027125	     27.66210021	    -16.86414680	      1.42766311	    -73.44979789	    -23.69536123	    -10.36445472	     43.58123458	     23.28948507	     16.03432032	      3.38480907	    -27.89465015	     12.99294279	     -9.49171225	    -22.94384963	      7.88023544	    -15.19561029	     -0.10119421
      2.82000000	     -8.13192397	     13.09989154	     -3.37074729	     -1.63517238	     -0.03265725	      0.63989491	     28.38619302	    -16.68573433	      1.39728716	    -73.70819720	    -23.40652727	    -10.83271618	     43.08465511	     22.25918440	     16.04659011	      3.79687312	    -27.17362927	     13.08586026	     -9.57630400	    -23.03808518	      7.82274556	    -15.07027225	     -0.33804696
      2.82500000	     -8.03566669	     12.96439793	     -3.25085615	     -1.62799757	     -0.03105999	      0.63948760	     29.09594971	    -16.49416816	      1.34581049	    -73.88993975	    -23.15591030	    -11.35604193	     42.52530392	     21.24020251	     16.04298718	      4.22514106	    -26.45110063	     13.14863597	     -9.67518344	    -23.10075770	      7.76597095	    -14.92569329	     -0.58915889
      2.83000000	     -7.95229170	     12.81613129	     -3.12016735	     -1.62084980	     -0.02952618	      0.63905944	     29.79278428	    -16.28844675	      1.27521931	    -73.99679311	    -22.93102529	    -11.92357490	     41.89599808	     20.23750869	     16.02142050	      4.66199235	    -25.72871790	     13.18825354	     -9.79531420	    -23.14769074	      7.71112477	    -14.76355977	     -0.85528843
      2.83500000	     -7.87974368	     12.65216281	     -2.98108811	     -1.61372096	     -0.02805728	      0.63859857	     30.47461242	    -16.07104097	      1.17930356	    -74.03013755	    -22.73192753	    -12.53003282	     41.18287092	     19.24935321	     15.98000729	      5.10733035	    -25.00654429	     13.20911437	     -9.95813644	    -23.21052249	      7.65902252	    -14.58066375	     -1.13528933
      2.84000000	     -7.79720447	     12.49707904	     -2.82139277	     -1.60668375	     -0.02670435	      0.63812403	     31.12985632	    -15.87400577	      1.05105839	    -74.02003006	    -22.47216963	    -13.18031231	     40.22699493	     18.27565910	     15.94336139	      5.53642535	    -24.31815949	     13.27069595	    -10.10422607	    -23.33061645	      7.56757402	    -14.41104472	     -1.47262228
      2.84500000	     -7.74878492	     12.29891529	     -2.68252000	     -1.59957182	     -0.02538976	      0.63768272	     31.78930503	    -15.61217917	      0.92999700	    -73.93684135	    -22.17195031	    -13.66800138	     38.94780162	     17.33333118	     15.83928944	      5.94010948	    -23.62805097	     13.40909340	    -10.21052935	    -23.67178981	      7.53059350	    -14.18286339	     -1.73553259
      2.85000000	     -7.72267195	     12.12661707	     -2.50572943	     -1.59253170	     -0.02418028	      0.63709664	     32.45082028	    -15.41604946	      0.77370634	    -73.75384384	    -22.02293821	    -14.38283740	     38.28137806	     16.42076990	     15.78828830	      6.44177474	    -22.93267608	     13.38787250	    -10.52130104	    -23.92525217	      7.49506843	    -13.97461711	     -2.05642083
      2.85500000	     -7.67806033	     11.90552153	     -2.33171347	     -1.58553296	     -0.02301117	      0.63652582	     33.06062266	    -15.17135047	      0.57823731	    -73.51064656	    -21.82631458	    -15.05299724	     37.24537426	     15.50255269	     15.67749844	      6.95386116	    -22.27196831	     13.43771232	    -10.77790710	    -24.26117299	      7.42391654	    -13.71167254	     -2.39096612
